<svg xmlns="http://www.w3.org/2000/svg" width="174" height="44.823" viewBox="0 0 174 44.823">
    <defs>
        <style>
            .cls-2{fill:#169fe4}.cls-3{fill:#63dbbb}
        </style>
    </defs>
    <g id="Zoom_Logo" transform="translate(0 .002)">
        <path id="Path" fill="none" d="M0 11.529l11.541 11.54-.012.012.006.006 11.546-11.54L11.529 0 0 11.529z" transform="translate(10.859 10.8)"/>
        <path id="Path-2" d="M22.387 10.8L26.7 6.5a9.2 9.2 0 0 1 12.66-.32L33.159 0H11.482L0 11.488l10.853 10.835z" class="cls-2"/>
        <path id="Path-3" d="M16.757 11.575l-4.29 4.293A9.183 9.183 0 0 1 0 16.346l5.986 5.942 21.7.052 11.482-11.615L28.338 0" class="cls-2" transform="translate(5.601 22.346)"/>
        <path id="Rectangle" d="M0 0h.058v16.333H0z" class="cls-3" transform="rotate(-45 24.255 -21.626)"/>
        <path id="Path-4" d="M.012 10.76L10.777 0 0 10.754l.012.006z" class="cls-3" transform="translate(33.969 11.546)"/>
        <path id="Path-5" d="M.332.32L0 0l5.386 5.371z" class="cls-3" transform="translate(39.36 6.175)"/>
        <path id="Path-6" d="M4.313 2.69L0 6.995l11.558 11.54.041-.041L22.358 7.741l-5.385-5.372a9.2 9.2 0 0 0-12.66.32z" class="cls-3" transform="translate(22.387 3.805)"/>
        <path id="Rectangle-2" d="M0 0h.058v16.322H0z" class="cls-3" transform="rotate(-45 32.413 -1.923)"/>
        <path id="Path-7" d="M5.059 5.051c.169.169.344.332.519.484L0 0z" class="cls-3" transform="translate(.041 33.124)"/>
        <path id="Path-8" d="M10.818 0L0 10.795l5.578 5.534a9.2 9.2 0 0 0 12.45-.484l4.3-4.293" class="cls-3" transform="translate(.041 22.329)"/>
        <path id="Path-9" d="M0 25.423L16.827 5.074H.46V0H23.5v4.363L7.216 24.706h16.413v5.074H0z" class="cls-2" transform="translate(53.221 .209)"/>
        <path id="Shape" d="M14.315 30.2a13.539 13.539 0 0 1-5.731-1.28 14.411 14.411 0 0 1-4.576-3.4A15.7 15.7 0 0 1 0 15.1a14.859 14.859 0 0 1 1.113-5.7 15.568 15.568 0 0 1 3.065-4.825 14.569 14.569 0 0 1 4.634-3.338A13.935 13.935 0 0 1 14.534 0h.256a13.2 13.2 0 0 1 5.75 1.324 14.656 14.656 0 0 1 4.56 3.461 15.9 15.9 0 0 1 2.913 4.863 15.327 15.327 0 0 1-3.042 15.987 14.568 14.568 0 0 1-4.616 3.315 13.715 13.715 0 0 1-5.745 1.25h-.295zm.27-25.039a8.6 8.6 0 0 0-3.727.856 8.407 8.407 0 0 0-2.727 2.267 10 10 0 0 0-1.685 3.187 11.837 11.837 0 0 0-.582 3.629 12.024 12.024 0 0 0 .582 3.735 9.8 9.8 0 0 0 1.749 3.185 8.039 8.039 0 0 0 6.419 3.08 8.479 8.479 0 0 0 3.692-.85 8.337 8.337 0 0 0 2.711-2.308 10.206 10.206 0 0 0 1.68-3.21 11.934 11.934 0 0 0 .582-3.629 11.771 11.771 0 0 0-.582-3.733 10.224 10.224 0 0 0-1.749-3.19 8.232 8.232 0 0 0-2.722-2.2 8.593 8.593 0 0 0-3.641-.817z" class="cls-2" transform="translate(78.651 -.002)"/>
        <path id="Shape-2" d="M14.321 30.2a13.552 13.552 0 0 1-5.735-1.281 14.4 14.4 0 0 1-4.575-3.4A15.707 15.707 0 0 1 0 15.1a14.9 14.9 0 0 1 1.115-5.7A15.663 15.663 0 0 1 4.18 4.574a14.554 14.554 0 0 1 4.662-3.338A13.745 13.745 0 0 1 14.554 0h.255a13.169 13.169 0 0 1 5.738 1.323 14.619 14.619 0 0 1 4.553 3.46 15.857 15.857 0 0 1 2.914 4.864 15.245 15.245 0 0 1 1.05 5.535 15 15 0 0 1-1.09 5.685 15.384 15.384 0 0 1-3 4.767 14.469 14.469 0 0 1-4.615 3.315 13.715 13.715 0 0 1-5.742 1.251h-.092zm.235-25.062A8.59 8.59 0 0 0 10.829 6 8.4 8.4 0 0 0 8.1 8.261a9.969 9.969 0 0 0-1.655 3.187 12.107 12.107 0 0 0 .012 7.386 9.88 9.88 0 0 0 1.7 3.187A8.059 8.059 0 0 0 14.58 25.1a8.489 8.489 0 0 0 3.693-.851A8.458 8.458 0 0 0 21 21.963a10.2 10.2 0 0 0 1.679-3.21 11.859 11.859 0 0 0 .583-3.628 11.714 11.714 0 0 0-.583-3.735 10.3 10.3 0 0 0-1.756-3.233 8.4 8.4 0 0 0-2.726-2.2 8.592 8.592 0 0 0-3.641-.818z" class="cls-2" transform="translate(110.375 -.001)"/>
        <path id="Path-10" d="M24.3 29.78V10.067l-7.682 14.68h-3.154l-7.676-14.68V29.78H0V0h6.213l8.813 16.946L23.92 0h6.172v29.78z" class="cls-2" transform="translate(143.907 .209)"/>
        <path id="Path-11" d="M0 9.1V0h.9v9.1z" class="cls-2" transform="translate(53.302 35.634)"/>
        <path id="Path-12" d="M.9 1.649V9.1H0V0h.694l6.021 7.573V0h.9v9.088h-.778z" class="cls-2" transform="translate(62.523 35.634)"/>
        <path id="Path-13" d="M6.062 1.748a2.792 2.792 0 0 0-1.014-.7A3.72 3.72 0 0 0 3.585.769a2.741 2.741 0 0 0-1.749.46 1.514 1.514 0 0 0-.583 1.235 1.339 1.339 0 0 0 .152.67 1.212 1.212 0 0 0 .455.454 2.915 2.915 0 0 0 .787.338q.478.14 1.137.28a13.178 13.178 0 0 1 1.311.35 3.6 3.6 0 0 1 1 .478 2 2 0 0 1 .629.7 2.242 2.242 0 0 1 .216 1.025 2.294 2.294 0 0 1-.245 1.089 2.2 2.2 0 0 1-.676.769 3.1 3.1 0 0 1-1.043.454 5.5 5.5 0 0 1-1.317.146A5.428 5.428 0 0 1 0 7.9l.449-.734a3.543 3.543 0 0 0 .583.489 4.43 4.43 0 0 0 .758.4 4.554 4.554 0 0 0 .892.268 4.986 4.986 0 0 0 1 .1 3.131 3.131 0 0 0 1.7-.39 1.322 1.322 0 0 0 .583-1.165 1.351 1.351 0 0 0-.175-.711 1.48 1.48 0 0 0-.519-.5 3.5 3.5 0 0 0-.859-.357c-.344-.1-.74-.21-1.195-.309s-.9-.227-1.253-.344a3.311 3.311 0 0 1-.909-.454 1.649 1.649 0 0 1-.583-.647 2.1 2.1 0 0 1-.187-.926 2.51 2.51 0 0 1 .24-1.128 2.167 2.167 0 0 1 .67-.816 3.177 3.177 0 0 1 1.026-.5A4.607 4.607 0 0 1 3.532 0a4.543 4.543 0 0 1 1.62.274 4.36 4.36 0 0 1 1.288.781z" class="cls-2" transform="translate(77.718 35.593)"/>
        <path id="Path-14" d="M3.777 8.354a2.822 2.822 0 0 0 1.434-.326 2.564 2.564 0 0 0 .909-.856 3.419 3.419 0 0 0 .472-1.212 6.772 6.772 0 0 0 .134-1.369V0h.9v4.591a7.109 7.109 0 0 1-.2 1.748 4.106 4.106 0 0 1-.659 1.456 3.205 3.205 0 0 1-1.166 1 4.426 4.426 0 0 1-3.6 0A3.339 3.339 0 0 1 .833 7.76 4.077 4.077 0 0 1 .192 6.3 7.4 7.4 0 0 1 0 4.608V0h.88v4.591a6.941 6.941 0 0 0 .146 1.4 3.494 3.494 0 0 0 .478 1.2 2.564 2.564 0 0 0 .863.868 2.822 2.822 0 0 0 1.411.3z" class="cls-2" transform="translate(92.196 35.634)"/>
        <path id="Shape-3" d="M0 9.1V0h3.872a2.359 2.359 0 0 1 1.06.252A2.911 2.911 0 0 1 5.783.9a3.031 3.031 0 0 1 .581.914 2.816 2.816 0 0 1 .2 1.043 3.282 3.282 0 0 1-.147.956A2.87 2.87 0 0 1 6 4.632a2.43 2.43 0 0 1-.635.617 2.169 2.169 0 0 1-.834.339l2.232 3.5H5.752L3.59 5.727H.9v3.357L0 9.1zm3.871-4.153h.012a1.6 1.6 0 0 0 .716-.17 1.76 1.76 0 0 0 .554-.47 2.224 2.224 0 0 0 .362-.664 2.324 2.324 0 0 0 .128-.782 2.368 2.368 0 0 0-.143-.792 2.15 2.15 0 0 0-.4-.658 1.856 1.856 0 0 0-.589-.449A1.6 1.6 0 0 0 3.812.8H.886L.9 4.947z" class="cls-2" transform="translate(108.003 35.634)"/>
        <path id="Shape-4" d="M.961 9.1H0L3.782 0h.758l3.783 9.1h-.949L6.208 6.257H2.127L.961 9.1zm3.2-8.034L2.3 5.569 6 5.552 4.157 1.066z" class="cls-2" transform="translate(121.31 35.634)"/>
        <path id="Path-15" d="M.909 1.649V9.1H0V0h.694L6.72 7.573V0h.9v9.088h-.783z" class="cls-2" transform="translate(136.971 35.634)"/>
        <path id="Path-16" d="M0 4.539a4.845 4.845 0 0 1 .291-1.631 4.468 4.468 0 0 1 .839-1.456A4.266 4.266 0 0 1 2.489.409 3.971 3.971 0 0 1 4.319 0a3.8 3.8 0 0 1 2.087.583 3.356 3.356 0 0 1 1.276 1.433l-.705.437a2.721 2.721 0 0 0-.536-.753 2.873 2.873 0 0 0-.67-.5 3.2 3.2 0 0 0-.747-.279A3.755 3.755 0 0 0 4.272.84a3.067 3.067 0 0 0-1.451.332 3.275 3.275 0 0 0-1.055.874 3.693 3.693 0 0 0-.653 1.212A4.559 4.559 0 0 0 .9 4.62a4.141 4.141 0 0 0 .979 2.674 3.45 3.45 0 0 0 1.078.816 2.962 2.962 0 0 0 1.352.315 3.5 3.5 0 0 0 .793-.1 2.95 2.95 0 0 0 .781-.309 3.328 3.328 0 0 0 .7-.524 2.75 2.75 0 0 0 .536-.763l.746.384a2.767 2.767 0 0 1-.618.9 3.957 3.957 0 0 1-.886.676 4.379 4.379 0 0 1-1.034.411 4.269 4.269 0 0 1-1.072.14 3.609 3.609 0 0 1-1.714-.408A4.4 4.4 0 0 1 1.195 7.76 5 5 0 0 1 0 4.55z" class="cls-2" transform="translate(152.318 35.581)"/>
        <path id="Path-17" d="M6.114 8.307V9.1H0V0h6v.8H.9v3.28h4.451v.751H.9v3.5z" class="cls-2" transform="translate(167.758 35.634)"/>
    </g>
</svg>
